<svg xmlns="http://www.w3.org/2000/svg" width="25" height="24" fill="none"><path stroke="currentColor" stroke-linecap="round" stroke-linejoin="round" stroke-width="2" d="m12.073 21-.1-.15c-.695-1.042-1.042-1.563-1.5-1.94a4 4 0 0 0-1.378-.737C8.526 18 7.9 18 6.648 18H5.273c-1.12 0-1.68 0-2.108-.218a2 2 0 0 1-.874-.874c-.218-.428-.218-.988-.218-2.108V6.2c0-1.12 0-1.68.218-2.108a2 2 0 0 1 .874-.874C3.593 3 4.153 3 5.273 3h.4c2.24 0 3.36 0 4.216.436a4 4 0 0 1 1.748 1.748c.436.856.436 1.976.436 4.216m0 11.6V9.4m0 11.6.1-.15c.695-1.042 1.042-1.563 1.501-1.94a4 4 0 0 1 1.378-.737C15.62 18 16.246 18 17.498 18h1.375c1.12 0 1.68 0 2.108-.218a2 2 0 0 0 .874-.874c.218-.428.218-.988.218-2.108V6.2c0-1.12 0-1.68-.218-2.108a2 2 0 0 0-.874-.874C20.553 3 19.993 3 18.873 3h-.4c-2.24 0-3.36 0-4.216.436a4 4 0 0 0-1.748 1.748c-.436.856-.436 1.976-.436 4.216"/></svg>