<svg xmlns="http://www.w3.org/2000/svg" width="56" viewBox="0 0 56 24" fill="none"><path fill="currentColor" d="M15.276 16.537q-1.77 0-3.024-.803t-1.925-2.222-.67-3.255q0-1.869.681-3.277.682-1.408 1.936-2.188Q13.538 4 15.276 4q1.782 0 3.035.803 1.265.792 1.924 2.21.672 1.408.671 3.244 0 1.87-.67 3.289-.672 1.407-1.936 2.199t-3.024.792m0-1.55q1.98 0 2.947-1.31.968-1.32.968-3.42 0-2.155-.979-3.43-.968-1.276-2.936-1.276-1.33 0-2.2.604-.857.594-1.286 1.661-.418 1.056-.418 2.441 0 2.145.99 3.442.989 1.287 2.914 1.287"/><path fill="#661AEE" d="M20.906 10.258q0-1.837-.67-3.244-.66-1.419-1.925-2.211Q17.057 4 15.275 4q-1.737 0-3.002.792l-.304.205q-1.035.752-1.631 1.983l-.16.359q-.521 1.282-.522 2.919l.011.452q.074 1.56.66 2.803.672 1.418 1.925 2.221 1.096.703 2.589.79l.434.013q1.54 0 2.7-.606l.325-.186a5.1 5.1 0 0 0 1.759-1.857l.176-.342q.588-1.241.66-2.828zm-2.216 0c0-1.364-.309-2.39-.875-3.127l-.002-.002c-.528-.697-1.342-1.078-2.538-1.078-.81 0-1.437.183-1.913.514v.001c-.484.335-.855.807-1.108 1.437-.25.633-.382 1.382-.382 2.255 0 1.353.312 2.383.886 3.137.547.71 1.358 1.091 2.517 1.091v.5l-.236-.005q-1.75-.075-2.678-1.282-.927-1.216-.985-3.176l-.004-.265q0-1.386.418-2.442.428-1.066 1.286-1.66.87-.605 2.2-.605l.242.005q1.786.075 2.694 1.27.978 1.276.978 3.432l-.004.259q-.055 1.924-.963 3.16-.968 1.31-2.948 1.31v-.5c1.199 0 2.014-.39 2.544-1.105.567-.772.871-1.8.871-3.124m2.716 0c0 1.306-.234 2.477-.718 3.5l-.002.003c-.486 1.02-1.193 1.827-2.12 2.408-.936.586-2.04.868-3.29.868-1.258 0-2.363-.286-3.294-.882-.919-.588-1.622-1.403-2.107-2.428-.484-1.023-.719-2.184-.719-3.47 0-1.306.239-2.476.732-3.494s1.2-1.822 2.12-2.396c.936-.585 2.031-.867 3.267-.867 1.265 0 2.375.286 3.306.882.925.58 1.627 1.39 2.105 2.416.485 1.016.72 2.174.72 3.46"/><g fill="currentColor" clip-path="url(#a)"><path d="m22.586 12.103-.086 11.84h2.24l.086-8.228c-1.211-1.184-2.24-1.58-2.24-3.612"/><path d="M32.615 7.002q-.014-.034-.026-.068c-.01-.021-.019-.03-.027-.047s-.026-.062-.041-.09c-.032-.059-.067-.108-.099-.165a5.4 5.4 0 0 0-.651-.957 4.6 4.6 0 0 0-1-.888Q29.589 4 27.965 4h-.059a5 5 0 0 0-.603.04q-1.205.127-2.083.742c-.099.071-.182.156-.274.236q-.197.149-.377.317c-1.21 1.105-1.987 2.795-1.987 4.692 0 2.028.887 3.818 2.24 4.91q.102.082.208.159c.07.051.128.107.198.155.458.32.977.544 1.526.659q.127.031.266.055c.094.015.166.032.25.044q.316.045.634.046h.1a5.2 5.2 0 0 0 1.961-.369c.047-.019.097-.032.143-.053q.215-.098.417-.222c.061-.036.13-.062.189-.101q.014-.011.03-.023c.01-.007.031-.016.046-.027a5.1 5.1 0 0 0 1.566-1.72c.02-.034.045-.066.066-.098.588-.97.907-2.15.907-3.412a6.9 6.9 0 0 0-.713-3.028"/></g><path fill="currentColor" d="M40.896 16.537q-1.738 0-3.014-.77-1.264-.77-1.968-2.166-.705-1.398-.704-3.278 0-1.946.693-3.365t1.946-2.188Q39.114 4 40.83 4q1.76 0 3.003.814 1.242.802 1.88 2.31.638 1.506.583 3.595h-1.65v-.572q-.043-2.31-1-3.486-.946-1.176-2.772-1.176-1.913 0-2.936 1.242-1.011 1.244-1.011 3.541 0 2.244 1.011 3.486 1.023 1.232 2.893 1.232 1.275 0 2.22-.583c.639-.396 1.184-1.051 1.508-1.704.323-.653 1.871-.222 1.506.583s-1.162 1.836-2.078 2.408q-1.365.846-3.09.847m-4.542-5.818V9.367h9.072v1.352z"/><path fill="currentColor" d="M34.71 10.323c0-1.356.241-2.556.743-3.584.5-1.024 1.212-1.829 2.135-2.395v-.001c.934-.568 2.02-.843 3.241-.843 1.25 0 2.35.29 3.273.894.922.595 1.61 1.448 2.07 2.535.46 1.085.66 2.358.623 3.803l-.013.487H37.48c.113.946.404 1.675.842 2.216l.11.125c.563.606 1.342.926 2.397.926v.5l-.23-.005q-1.59-.066-2.53-1.078l-.132-.148q-.906-1.115-1-3.036h9.358q.054-2.09-.583-3.596-.558-1.318-1.58-2.098l-.3-.212Q42.589 4 40.829 4q-1.714 0-2.98.77-1.253.77-1.947 2.188-.692 1.42-.692 3.365 0 1.88.704 3.278.704 1.395 1.968 2.166 1.117.673 2.587.757l.426.013q1.726 0 3.09-.847c.802-.5 1.513-1.353 1.922-2.097l.158-.312c.364-.803-1.184-1.235-1.507-.583-.324.653-.87 1.31-1.507 1.705l-.241.137q-.865.447-1.98.446v-.5c.77 0 1.418-.176 1.958-.509.546-.339 1.033-.917 1.321-1.5.169-.34.483-.505.769-.565.283-.06.586-.03.849.057.258.086.534.247.713.507.197.286.244.65.08 1.012-.4.879-1.257 1.994-2.27 2.626h-.001c-.994.618-2.117.923-3.354.923-1.234 0-2.33-.274-3.271-.842h-.002c-.928-.565-1.646-1.36-2.155-2.37-.51-1.013-.757-2.186-.757-3.502m6.163-4.839q1.825 0 2.772 1.177.787.97.956 2.705h-7.632q.165-1.651.968-2.638 1.022-1.244 2.936-1.244m0 .5c-1.156 0-1.98.369-2.549 1.058-.372.457-.637 1.06-.78 1.824h6.485c-.141-.817-.406-1.44-.772-1.89l-.002-.001c-.516-.642-1.281-.99-2.382-.99M6.893.86a1 1 0 0 1 1.713 1.03l-5.548 9.208 5.649 8.472.053.088a1 1 0 0 1-1.657 1.104l-.06-.082-6-9a1 1 0 0 1-.025-1.07zM49.357.86a1 1 0 0 0-1.713 1.03l5.548 9.208-5.649 8.472-.053.088a1 1 0 0 0 1.657 1.104l.06-.082 6-9a1 1 0 0 0 .025-1.07z"/><defs><clipPath id="a"><path fill="currentColor" d="M22.5 4h10.827v19.944H22.5z"/></clipPath></defs></svg>