<svg width="181" height="36" viewBox="0 0 181 36" fill="none" xmlns="http://www.w3.org/2000/svg">
<g id="Full logo" clip-path="url(#clip0_261_281)">
<g id="Layer 2">
<g id="OpenTag">
<path id="Vector" d="M7.63 20L0 12.33L7.63 4.69995L9.71 6.77995L4.05 12.33L9.71 17.88L7.63 20Z" fill="currentColor"/>
</g>
<g id="O1">
<path id="Vector_2" d="M22.6102 24.6601C20.5425 24.722 18.4997 24.1949 16.7202 23.1401C15.0951 22.1307 13.8018 20.667 13.0002 18.9301C12.1059 16.9631 11.665 14.8203 11.7102 12.6601C11.6652 10.4966 12.106 8.3506 13.0002 6.38006C13.8042 4.64472 15.097 3.18162 16.7202 2.17006C18.5008 1.11873 20.5434 0.595052 22.6102 0.660057C24.6734 0.598603 26.7119 1.12209 28.4902 2.17006C30.1133 3.18162 31.4061 4.64472 32.2102 6.38006C33.0964 8.35285 33.5336 10.4978 33.4902 12.6601C33.5334 14.8191 33.0962 16.9607 32.2102 18.9301C31.4086 20.667 30.1152 22.1307 28.4902 23.1401C26.7117 24.1885 24.674 24.7152 22.6102 24.6601ZM22.6102 21.4701C24.0463 21.5436 25.4695 21.166 26.6802 20.3901C27.7853 19.6241 28.6353 18.5442 29.1202 17.2901C29.6904 15.8143 29.9689 14.2419 29.9402 12.6601C29.9751 11.068 29.6965 9.48457 29.1202 8.00006C28.6189 6.78228 27.7703 5.73895 26.6802 5.00006C25.4677 4.22447 24.0488 3.83402 22.6102 3.88006C21.1759 3.81082 19.755 4.18438 18.5402 4.95006C17.439 5.69865 16.5888 6.76144 16.1002 8.00006C15.5228 9.47787 15.2376 11.0536 15.2602 12.6401C15.2194 14.2145 15.4913 15.7814 16.0602 17.2501C16.5528 18.5002 17.4099 19.5733 18.5202 20.3301C19.7384 21.1114 21.1634 21.5086 22.6102 21.4701Z" fill="currentColor"/>
</g>
<g id="P">
<path id="Vector_3" d="M35.6202 17.77L35.4902 35.68H38.8502L39.0002 23.23C37.1602 21.43 35.6202 20.83 35.6202 17.77Z" fill="currentColor"/>
<path id="Vector_4" d="M50.6398 9.99999C50.6358 9.96677 50.6358 9.9332 50.6398 9.89999C50.6417 9.87669 50.6417 9.85328 50.6398 9.82999L50.5798 9.68999L50.4298 9.43999C50.1497 8.9251 49.8144 8.44225 49.4298 7.99999C48.9971 7.47671 48.488 7.0216 47.9198 6.64999C46.6721 5.83829 45.2078 5.42342 43.7198 5.45999H43.6298C43.3288 5.46005 43.0281 5.48009 42.7298 5.51999C41.6105 5.6174 40.5355 6.00328 39.6098 6.63999C39.4598 6.74999 39.3398 6.87999 39.1998 6.99999C39.0598 7.11999 38.8198 7.30999 38.6298 7.47999C37.6682 8.39342 36.9055 9.49543 36.3893 10.7171C35.8731 11.9388 35.6145 13.2538 35.6298 14.58C35.6019 15.9972 35.8899 17.4028 36.4728 18.6948C37.0557 19.9869 37.9189 21.133 38.9998 22.05L39.3098 22.29C39.4054 22.3722 39.5056 22.4489 39.6098 22.52C40.2953 23.0024 41.0706 23.3424 41.8898 23.52L42.2898 23.6L42.6698 23.67C42.9813 23.7135 43.2953 23.7369 43.6098 23.74H43.7698C44.7737 23.7474 45.7693 23.5571 46.6998 23.18L46.9098 23.1C47.1268 23.0039 47.3372 22.8937 47.5398 22.77L47.8198 22.61H47.8898C48.8664 21.9357 49.6713 21.0417 50.2398 20L50.3398 19.86C51.2506 18.2907 51.7205 16.5044 51.6998 14.69C51.7129 13.0658 51.3501 11.4606 50.6398 9.99999Z" fill="currentColor"/>
</g>
<g id="E1">
<path id="Vector_5" d="M62.3304 24C60.7499 24.0328 59.1894 23.6427 57.8104 22.87C56.5329 22.1244 55.4928 21.0323 54.8104 19.72C54.0551 18.2633 53.6769 16.6405 53.7104 15C53.6679 13.3023 54.0313 11.619 54.7704 10.09C55.4402 8.75334 56.482 7.63866 57.7704 6.88001C59.1145 6.1009 60.6471 5.70652 62.2004 5.74001C63.7818 5.71175 65.3365 6.14999 66.6704 7.00001C67.9305 7.84657 68.898 9.06209 69.4404 10.48C70.0885 12.1878 70.3382 14.0211 70.1704 15.84H57.2904C57.3459 17.0902 57.7743 18.2953 58.5204 19.3C58.9635 19.829 59.5246 20.2467 60.1585 20.5194C60.7925 20.792 61.4816 20.9121 62.1704 20.87C63.1229 20.8964 64.0631 20.6501 64.8804 20.16C65.6544 19.6763 66.2751 18.9827 66.6704 18.16L69.9504 19.16C69.3282 20.6456 68.2586 21.9004 66.8904 22.75C65.521 23.5937 63.9386 24.0274 62.3304 24ZM66.7504 13.22C66.6807 12.1228 66.3143 11.0652 65.6904 10.16C65.282 9.66593 64.7609 9.27721 64.171 9.02661C63.581 8.77601 62.9395 8.67085 62.3004 8.72001C61.5909 8.67184 60.8799 8.78954 60.2238 9.06378C59.5678 9.33802 58.9845 9.76127 58.5204 10.3C57.8889 11.1564 57.4925 12.163 57.3704 13.22H66.7504Z" fill="currentColor"/>
</g>
<g id="O2">
<path id="Vector_6" d="M90.9204 14C90.8604 13.62 90.8204 13.23 90.7304 12.86C90.5708 12.1336 90.3258 11.4287 90.0004 10.76C89.4285 9.62542 88.6163 8.629 87.6204 7.84001C86.7751 7.17611 85.8063 6.68664 84.7704 6.40001C84.2931 6.2543 83.8049 6.14729 83.3104 6.08001C82.3421 5.93997 81.3587 5.93997 80.3904 6.08001C79.8957 6.14601 79.4074 6.25304 78.9304 6.40001C77.8949 6.68788 76.9264 7.17722 76.0804 7.84001C75.0845 8.629 74.2723 9.62542 73.7004 10.76C73.3922 11.4224 73.1574 12.1165 73.0004 12.83C72.9104 13.2 72.8704 13.59 72.8104 13.97C72.7504 14.35 72.8104 14.75 72.7304 15.14C72.6504 15.53 72.7304 15.92 72.8104 16.3C72.8904 16.68 72.9104 17.07 73.0004 17.44C73.1702 18.1551 73.4184 18.8493 73.7404 19.51C74.3123 20.6446 75.1245 21.641 76.1204 22.43C77.3853 23.3714 78.8681 23.977 80.4304 24.19C81.3987 24.33 82.3821 24.33 83.3504 24.19C83.8457 24.1275 84.3344 24.0204 84.8104 23.87C85.8428 23.5821 86.8081 23.0927 87.6504 22.43C88.6355 21.6378 89.4372 20.6417 90.0004 19.51C90.327 18.8513 90.5754 18.1565 90.7404 17.44C90.8304 17.07 90.8704 16.68 90.9304 16.3C90.9904 15.92 90.9904 15.53 91.0104 15.14C91.0304 14.75 91.0004 14.35 90.9204 14ZM86.7204 18.7C86.5802 19.6946 86.24 20.6504 85.7204 21.51C85.2998 22.2886 84.6173 22.8933 83.7938 23.2172C82.9703 23.5411 82.0587 23.5634 81.2204 23.28C80.4152 22.938 79.7222 22.3767 79.2204 21.66C78.7037 20.9389 78.2929 20.1475 78.0004 19.31C77.4296 17.7407 77.0665 16.1035 76.9204 14.44C76.8319 13.4969 76.8588 12.5466 77.0004 11.61C77.1349 10.6109 77.4754 9.65063 78.0004 8.79001C78.416 8.00862 79.0953 7.39995 79.9174 7.0722C80.7395 6.74445 81.6512 6.71887 82.4904 7.00001C83.2934 7.34566 83.9855 7.90624 84.4904 8.62001C85.0111 9.34953 85.4221 10.1514 85.7104 11C86.2859 12.5645 86.6491 14.199 86.7904 15.86C86.8846 16.7959 86.8611 17.74 86.7204 18.67V18.7Z" fill="currentColor"/>
</g>
<g id="L1">
<path id="Vector_7" d="M93.21 23.52V0H96.55V23.52H93.21Z" fill="currentColor"/>
</g>
<g id="U1">
<path id="Vector_8" d="M105.38 24C104.351 24.0302 103.327 23.8356 102.38 23.43C101.608 23.0842 100.924 22.5679 100.38 21.92C99.8843 21.323 99.4922 20.6469 99.2203 19.92C98.9623 19.2211 98.778 18.4972 98.6703 17.76C98.5854 17.1435 98.5387 16.5223 98.5303 15.9V6.23999H101.92V14.74C101.924 15.4333 101.981 16.1254 102.09 16.81C102.192 17.5073 102.409 18.183 102.73 18.81C103.037 19.4108 103.496 19.921 104.06 20.29C104.733 20.6909 105.508 20.8856 106.29 20.85C106.87 20.8529 107.446 20.7513 107.99 20.55C108.526 20.3504 109.007 20.0246 109.39 19.6C109.823 19.0965 110.143 18.5068 110.33 17.87C110.577 17.0227 110.692 16.1423 110.67 15.26V6.25999H114.05V23.52H111.05V21.44C110.585 22.0531 110.016 22.5809 109.37 23C108.159 23.6972 106.777 24.0434 105.38 24Z" fill="currentColor"/>
</g>
<g id="W1">
<path id="Vector_9" d="M121.35 23.52L116.07 6.21997H119.38L123 18.1L126.65 6.23997H129.53L133.17 18.1L136.79 6.23997H140.09L134.81 23.52H132.12L128.12 11.01L124.12 23.52H121.35Z" fill="currentColor"/>
</g>
<g id="A1">
<path id="Vector_10" d="M147.93 24C146.815 24.0365 145.707 23.7924 144.71 23.29C143.88 22.8595 143.187 22.2047 142.71 21.4C142.27 20.612 142.042 19.7228 142.05 18.82C142.031 18.0255 142.188 17.2366 142.51 16.51C142.827 15.8435 143.301 15.2637 143.89 14.82C144.566 14.3192 145.324 13.9402 146.13 13.7C146.984 13.4485 147.853 13.2482 148.73 13.1C149.73 12.93 150.73 12.77 151.81 12.62L153.81 12.35C153.836 11.439 153.551 10.5464 153 9.82C152.587 9.45044 152.102 9.17072 151.575 8.99857C151.049 8.82643 150.492 8.76562 149.94 8.82C149.067 8.81107 148.206 9.02809 147.44 9.45C146.659 9.91098 146.091 10.6622 145.86 11.54L142.74 10.54C143.129 9.11772 143.99 7.86962 145.18 7C146.598 6.06629 148.275 5.60751 149.97 5.69C151.345 5.66137 152.71 5.93088 153.97 6.48C155.09 6.97952 155.986 7.87275 156.49 8.99C156.771 9.54949 156.944 10.1567 157 10.78C157.07 11.4444 157.103 12.112 157.1 12.78V23.52H154.1V21C153.55 21.8079 152.834 22.4896 152 23C150.757 23.6891 149.352 24.0343 147.93 24ZM148.52 21.26C149.365 21.2847 150.203 21.1136 150.97 20.76C151.606 20.4566 152.166 20.016 152.61 19.47C153.006 18.9971 153.286 18.4393 153.43 17.84C153.621 17.2822 153.729 16.6993 153.75 16.11C153.75 15.75 153.75 15.42 153.75 15.11L151.96 15.38C151.1 15.51 150.31 15.63 149.62 15.75C148.989 15.8608 148.365 16.0077 147.75 16.19C147.324 16.3388 146.915 16.5333 146.53 16.77C146.189 16.9765 145.899 17.2566 145.68 17.59C145.465 17.9375 145.357 18.3412 145.37 18.75C145.366 19.1856 145.48 19.6143 145.7 19.99C145.94 20.3822 146.287 20.6978 146.7 20.9C147.271 21.1589 147.894 21.2821 148.52 21.26Z" fill="currentColor"/>
</g>
<g id="Slash1">
<path id="Vector_11" d="M165.25 1.06006H168.63L162.49 24.0601H159.11L165.25 1.06006Z" fill="currentColor"/>
</g>
<g id="CloseTag">
<path id="Vector_12" d="M172.73 20.21L170.63 18.13L176.31 12.58L170.63 7L172.73 5L180.34 12.63L172.73 20.21Z" fill="currentColor"/>
</g>
</g>
</g>
<defs>
<clipPath id="clip0_261_281">
<rect width="180.34" height="35.68" fill="white"/>
</clipPath>
</defs>
</svg>
