<svg width="56" height="24" viewBox="0 0 56 24" fill="none" xmlns="http://www.w3.org/2000/svg">
<path d="M15.2758 16.5367C14.0954 16.5367 13.0873 16.2691 12.2516 15.7339C11.4158 15.1987 10.7743 14.4582 10.3271 13.5125C9.87986 12.5667 9.65625 11.4817 9.65625 10.2573C9.65625 9.01101 9.88353 7.91863 10.3381 6.98021C10.7926 6.04179 11.4378 5.31232 12.2736 4.79179C13.1167 4.26393 14.1174 4 15.2758 4C16.4635 4 17.4752 4.2676 18.311 4.80279C19.1541 5.33065 19.7956 6.06745 20.2355 7.01321C20.6827 7.95162 20.9063 9.03301 20.9063 10.2573C20.9063 11.5037 20.6827 12.5997 20.2355 13.5455C19.7882 14.4839 19.1431 15.217 18.3 15.7449C17.4569 16.2728 16.4488 16.5367 15.2758 16.5367ZM15.2758 14.9861C16.5954 14.9861 17.5778 14.5499 18.223 13.6774C18.8682 12.7977 19.1907 11.6576 19.1907 10.2573C19.1907 8.8204 18.8645 7.6767 18.212 6.82625C17.5668 5.97581 16.5881 5.55059 15.2758 5.55059C14.3887 5.55059 13.6555 5.7522 13.0764 6.15543C12.5045 6.55133 12.0756 7.10485 11.7897 7.81599C11.5111 8.51981 11.3718 9.33359 11.3718 10.2573C11.3718 11.687 11.7017 12.8343 12.3615 13.6994C13.0214 14.5572 13.9928 14.9861 15.2758 14.9861Z" fill="#661AEE"/>
<path d="M20.9062 10.2578C20.9062 9.03362 20.6825 7.95201 20.2354 7.01367C19.7955 6.06792 19.1537 5.3306 18.3105 4.80273C17.4748 4.26768 16.4629 4 15.2754 4C14.1172 4.00006 13.1165 4.26419 12.2734 4.79199L11.9688 4.99707C11.2793 5.49821 10.7356 6.15949 10.3379 6.98047L10.1787 7.33887C9.83055 8.1938 9.65625 9.16703 9.65625 10.2578L9.66699 10.71C9.71591 11.7508 9.93584 12.6852 10.3271 13.5127C10.7744 14.4584 11.4162 15.1992 12.252 15.7344C12.9831 16.2024 13.8461 16.4658 14.8408 16.5244L15.2754 16.5371C16.3016 16.5371 17.2019 16.3346 17.9756 15.9307L18.2998 15.7451C19.0376 15.2832 19.624 14.664 20.0586 13.8877L20.2354 13.5459C20.6267 12.7184 20.8466 11.7754 20.8955 10.7178L20.9062 10.2578ZM18.6904 10.2578C18.6904 8.8938 18.3812 7.86842 17.8154 7.13086L17.8135 7.12891C17.2846 6.43178 16.4712 6.05078 15.2754 6.05078C14.4644 6.05084 13.8382 6.23422 13.3623 6.56543L13.3613 6.56641C12.8781 6.90097 12.5072 7.37295 12.2539 8.00293C12.0037 8.63623 11.8721 9.38484 11.8721 10.2578C11.8721 11.611 12.1835 12.6407 12.7578 13.3945C13.3048 14.1056 14.1155 14.4862 15.2754 14.4863V14.9863L15.0391 14.9814C13.8727 14.9312 12.98 14.5034 12.3613 13.6992C11.7429 12.8883 11.4147 11.8294 11.376 10.5225L11.3721 10.2578C11.3721 9.33416 11.5115 8.52017 11.79 7.81641C12.076 7.10528 12.5043 6.55117 13.0762 6.15527C13.6553 5.7521 14.3885 5.55084 15.2754 5.55078L15.5176 5.55566C16.7089 5.60543 17.607 6.02887 18.2119 6.82617C18.8644 7.67661 19.1904 8.82086 19.1904 10.2578L19.1865 10.5166C19.1488 11.799 18.8275 12.8529 18.2227 13.6777C17.5775 14.5499 16.5949 14.9863 15.2754 14.9863V14.4863C16.4739 14.4863 17.2892 14.0975 17.8193 13.3818C18.3857 12.6095 18.6904 11.5818 18.6904 10.2578ZM21.4062 10.2578C21.4062 11.5637 21.1716 12.7348 20.6875 13.7588L20.6865 13.7607C20.2003 14.7808 19.4928 15.5883 18.5654 16.1689C17.6295 16.7549 16.5252 17.0371 15.2754 17.0371C14.0182 17.0371 12.9127 16.7508 11.9824 16.1553C11.0633 15.5667 10.3601 14.7522 9.875 13.7266C9.3913 12.7037 9.15631 11.5434 9.15625 10.2578C9.15625 8.95077 9.39459 7.78094 9.8877 6.7627C10.3808 5.74464 11.0882 4.94061 12.0088 4.36719C12.9435 3.78219 14.0394 3.50006 15.2754 3.5C16.5396 3.5 17.6501 3.78573 18.5811 4.38184H18.5801C19.5058 4.96246 20.2077 5.77273 20.6855 6.79785H20.6865C21.171 7.81438 21.4062 8.97217 21.4062 10.2578Z" fill="#661AEE"/>
<g clip-path="url(#clip0_719_454)">
<path d="M22.5862 12.1034L22.5 23.9439H24.74L24.8261 15.715C23.6148 14.531 22.5862 14.1344 22.5862 12.1034Z" fill="#661AEE"/>
<path d="M32.6152 7.00172C32.6049 6.97954 32.598 6.95566 32.5885 6.93433C32.5791 6.91301 32.5704 6.90362 32.5618 6.88656C32.5532 6.8695 32.536 6.82515 32.5205 6.79615C32.4886 6.73814 32.4541 6.68867 32.4223 6.63237C32.2405 6.29112 32.0221 5.97025 31.7709 5.6753C31.4838 5.33216 31.1471 5.03293 30.7716 4.78732C29.9824 4.26244 29.0465 4 27.9639 4H27.9053C27.7036 4.00115 27.5022 4.01483 27.3022 4.04094C26.5001 4.12624 25.8032 4.37106 25.219 4.7822C25.12 4.853 25.0373 4.9383 24.9451 5.01763C24.815 5.11658 24.6866 5.22321 24.5677 5.33495C23.3573 6.43959 22.5811 8.13024 22.5811 10.0273C22.5811 12.0549 23.4684 13.8445 24.821 14.9372C24.8891 14.9918 24.958 15.0447 25.0286 15.0959C25.0993 15.1471 25.157 15.2033 25.2268 15.2511C25.6852 15.5705 26.2042 15.7946 26.7526 15.9096C26.8387 15.9301 26.9249 15.9497 27.0188 15.9651C27.1127 15.9804 27.185 15.9966 27.2695 16.0086C27.4792 16.0382 27.6908 16.0536 27.9027 16.0546H28.0035C28.6752 16.0604 29.3415 15.9352 29.9643 15.6861C30.0108 15.6674 30.0608 15.6537 30.1065 15.6333C30.2502 15.5676 30.3898 15.4932 30.5243 15.4106C30.5855 15.3748 30.6535 15.3492 30.713 15.31C30.7225 15.3032 30.7319 15.2938 30.7423 15.2869C30.7526 15.2801 30.7742 15.2707 30.7888 15.2605C31.4383 14.8143 31.9744 14.2251 32.3551 13.5391C32.3757 13.5059 32.3999 13.4743 32.4205 13.4419C33.009 12.472 33.3277 11.2923 33.3277 10.0299C33.3233 8.98029 33.0797 7.9452 32.6152 7.00172Z" fill="#661AEE"/>
</g>
<path d="M40.8955 16.5367C39.7371 16.5367 38.7327 16.2801 37.8823 15.7669C37.0391 15.2537 36.383 14.5316 35.9138 13.6005C35.4446 12.6694 35.21 11.577 35.21 10.3233C35.21 9.02568 35.4409 7.90397 35.9028 6.95822C36.3647 6.01247 37.0135 5.28299 37.8493 4.7698C38.6924 4.2566 39.6858 4 40.8295 4C42.0025 4 43.0032 4.27126 43.8317 4.81379C44.6601 5.34898 45.287 6.11877 45.7122 7.12318C46.1374 8.12758 46.3317 9.32626 46.295 10.7192H44.6455V10.1474C44.6161 8.60778 44.2826 7.44576 43.6447 6.6613C43.0142 5.87684 42.0905 5.48461 40.8735 5.48461C39.5978 5.48461 38.6191 5.89883 37.9372 6.72728C37.2628 7.55573 36.9255 8.73608 36.9255 10.2683C36.9255 11.764 37.2628 12.926 37.9372 13.7544C38.6191 14.5755 39.5831 14.9861 40.8295 14.9861C41.6799 14.9861 42.4204 14.7918 43.0509 14.4033C43.6887 14.0074 44.2343 13.3516 44.5575 12.6987C44.8807 12.0458 46.4291 12.4775 46.0641 13.2816C45.6991 14.0856 44.9021 15.1181 43.9856 15.6899C43.0766 16.2544 42.0465 16.5367 40.8955 16.5367ZM36.3537 10.7192V9.36658H45.4263V10.7192H36.3537Z" fill="#661AEE"/>
<path d="M34.71 10.3232C34.71 8.96716 34.9512 7.76725 35.4531 6.73926C35.9535 5.71471 36.6652 4.91029 37.5879 4.34375L37.5889 4.34277C38.522 3.7748 39.6087 3.50006 40.8291 3.5C42.0798 3.5 43.1793 3.78987 44.1025 4.39355C45.024 4.98882 45.7129 5.84222 46.1729 6.92871C46.6324 8.01433 46.8329 9.28739 46.7949 10.7324L46.7822 11.2188H37.4795C37.5929 12.1651 37.8835 12.8939 38.3223 13.4346L38.4316 13.5596C38.9949 14.1657 39.7741 14.4863 40.8291 14.4863V14.9863L40.5986 14.9814C39.5391 14.9365 38.6957 14.5769 38.0684 13.9033L37.9375 13.7549C37.3323 13.0116 36.9997 11.9992 36.9375 10.7188H46.2949C46.3315 9.32599 46.1371 8.12733 45.7119 7.12305C45.3398 6.24425 44.8136 5.54497 44.1328 5.02539L43.832 4.81348C43.0036 4.27095 42.0021 4 40.8291 4C39.6857 4.00006 38.6925 4.25654 37.8496 4.76953C37.0138 5.28273 36.3642 6.01226 35.9023 6.95801C35.4405 7.90374 35.21 9.02562 35.21 10.3232C35.21 11.5769 35.4449 12.6695 35.9141 13.6006C36.3832 14.5314 37.039 15.2535 37.8818 15.7666C38.6261 16.2157 39.4887 16.4683 40.4688 16.5244L40.8955 16.5371C42.0465 16.5371 43.0763 16.254 43.9854 15.6895C44.7871 15.1892 45.4976 14.3368 45.9072 13.5928L46.0645 13.2812C46.4287 12.4776 44.8813 12.046 44.5576 12.6982C44.2344 13.3512 43.6886 14.0074 43.0508 14.4033L42.8096 14.54C42.2338 14.8376 41.5733 14.9863 40.8291 14.9863V14.4863C41.6008 14.4863 42.2477 14.3105 42.7881 13.9775C43.334 13.6384 43.8207 13.0597 44.1094 12.4766C44.2779 12.1365 44.5924 11.972 44.8779 11.9121C45.1613 11.8527 45.4641 11.8816 45.7266 11.9688C45.985 12.0546 46.2605 12.2162 46.4395 12.4756C46.6368 12.7617 46.6842 13.1255 46.5195 13.4883C46.1208 14.3667 45.2633 15.482 44.25 16.1143H44.249C43.2548 16.7316 42.1324 17.0371 40.8955 17.0371C39.6615 17.0371 38.5645 16.7628 37.624 16.1953L37.6221 16.1943C36.6945 15.6297 35.9756 14.8348 35.4668 13.8252C34.9561 12.8117 34.71 11.6392 34.71 10.3232ZM40.873 5.48438C42.09 5.48438 43.014 5.87681 43.6445 6.66113C44.1696 7.30689 44.4879 8.20875 44.6006 9.36621H36.9688C37.0791 8.26474 37.402 7.38532 37.9375 6.72754C38.6192 5.89918 39.5976 5.48447 40.873 5.48438ZM40.873 5.98438C39.717 5.98446 38.8927 6.35266 38.3242 7.04199C37.9517 7.49949 37.687 8.10205 37.5449 8.86621H44.0293C43.8876 8.04882 43.623 7.42691 43.2568 6.97656L43.2549 6.97461C42.7393 6.33313 41.9737 5.98438 40.873 5.98438Z" fill="#661AEE"/>
<path d="M6.8934 0.859318C7.17838 0.386381 7.79247 0.233721 8.26547 0.518498C8.73841 0.803472 8.89107 1.41757 8.60629 1.89057L3.05844 11.0976L8.70688 19.5703L8.75961 19.6581C8.99664 20.1061 8.86031 20.6698 8.42954 20.957C7.99861 21.2443 7.42563 21.1531 7.10336 20.7617L7.04282 20.6796L1.04282 11.6796C0.828146 11.3576 0.818802 10.9408 1.0184 10.6093L6.8934 0.859318Z" fill="#661AEE"/>
<path d="M49.3566 0.859318C49.0716 0.386381 48.4575 0.233721 47.9845 0.518498C47.5116 0.803472 47.3589 1.41757 47.6437 1.89057L53.1916 11.0976L47.5431 19.5703L47.4904 19.6581C47.2534 20.1061 47.3897 20.6698 47.8205 20.957C48.2514 21.2443 48.8244 21.1531 49.1466 20.7617L49.2072 20.6796L55.2072 11.6796C55.4219 11.3576 55.4312 10.9408 55.2316 10.6093L49.3566 0.859318Z" fill="#661AEE"/>
<defs>
<clipPath id="clip0_719_454">
<rect width="10.8268" height="19.9441" fill="white" transform="translate(22.5 4)"/>
</clipPath>
</defs>
</svg>
