<svg xmlns="http://www.w3.org/2000/svg" width="181" height="36" fill="none"><g clip-path="url(#a)"><path fill="currentColor" d="M7.63 20 0 12.33 7.63 4.7l2.08 2.08-5.66 5.55 5.66 5.55zM22.61 24.66a10.9 10.9 0 0 1-5.89-1.52A9.8 9.8 0 0 1 13 18.93a14.4 14.4 0 0 1-1.29-6.27A14.5 14.5 0 0 1 13 6.38a9.83 9.83 0 0 1 3.72-4.21A10.9 10.9 0 0 1 22.61.66a10.94 10.94 0 0 1 5.88 1.51 9.83 9.83 0 0 1 3.72 4.21 14.6 14.6 0 0 1 1.28 6.28c.043 2.16-.394 4.3-1.28 6.27a9.8 9.8 0 0 1-3.72 4.21 11 11 0 0 1-5.88 1.52m0-3.19a6.9 6.9 0 0 0 4.07-1.08 6.7 6.7 0 0 0 2.44-3.1c.57-1.476.849-3.048.82-4.63A12.1 12.1 0 0 0 29.12 8a6.7 6.7 0 0 0-2.44-3 7.13 7.13 0 0 0-4.07-1.12 7 7 0 0 0-4.07 1.07A6.63 6.63 0 0 0 16.1 8a12.3 12.3 0 0 0-.84 4.64c-.04 1.574.231 3.141.8 4.61a6.7 6.7 0 0 0 2.46 3.08 7.2 7.2 0 0 0 4.09 1.14"/><g fill="currentColor"><path d="m35.62 17.77-.13 17.91h3.36L39 23.23c-1.84-1.8-3.38-2.4-3.38-5.46"/><path d="M50.64 10a.4.4 0 0 1 0-.1.4.4 0 0 0 0-.07l-.06-.14-.15-.25a8 8 0 0 0-1-1.44 6.8 6.8 0 0 0-1.51-1.35 7.37 7.37 0 0 0-4.2-1.19h-.09a7 7 0 0 0-.9.06 6.5 6.5 0 0 0-3.12 1.12c-.15.11-.27.24-.41.36s-.38.31-.57.48a9.64 9.64 0 0 0-3 7.1A9.55 9.55 0 0 0 39 22.05l.31.24q.143.123.3.23a6.3 6.3 0 0 0 2.28 1l.4.08.38.07q.467.065.94.07h.16a7.7 7.7 0 0 0 2.93-.56l.21-.08q.325-.144.63-.33l.28-.16h.07A7.6 7.6 0 0 0 50.24 20l.1-.14a10.07 10.07 0 0 0 1.36-5.17A10.5 10.5 0 0 0 50.64 10"/></g><path fill="currentColor" d="M62.33 24a8.87 8.87 0 0 1-4.52-1.13 7.83 7.83 0 0 1-3-3.15 9.8 9.8 0 0 1-1.1-4.72 10.7 10.7 0 0 1 1.06-4.91 7.76 7.76 0 0 1 3-3.21 8.47 8.47 0 0 1 4.43-1.14A8.05 8.05 0 0 1 66.67 7a7.36 7.36 0 0 1 2.77 3.48 12 12 0 0 1 .73 5.36H57.29a6.27 6.27 0 0 0 1.23 3.46 4.41 4.41 0 0 0 3.65 1.57 5 5 0 0 0 2.71-.71 4.8 4.8 0 0 0 1.79-2l3.28 1a7.75 7.75 0 0 1-3.06 3.59A8.4 8.4 0 0 1 62.33 24m4.42-10.78a6.07 6.07 0 0 0-1.06-3.06 4 4 0 0 0-3.39-1.44 4.58 4.58 0 0 0-3.78 1.58 6.1 6.1 0 0 0-1.15 2.92zM90.92 14c-.06-.38-.1-.77-.19-1.14a9.4 9.4 0 0 0-.73-2.1 8.75 8.75 0 0 0-2.38-2.92 8.1 8.1 0 0 0-2.85-1.44 9 9 0 0 0-1.46-.32 10.2 10.2 0 0 0-2.92 0 9 9 0 0 0-1.46.32 8.2 8.2 0 0 0-2.85 1.44 8.75 8.75 0 0 0-2.38 2.92 10 10 0 0 0-.7 2.07c-.09.37-.13.76-.19 1.14s0 .78-.08 1.17 0 .78.08 1.16.1.77.19 1.14c.17.715.418 1.41.74 2.07a8.75 8.75 0 0 0 2.38 2.92 9.3 9.3 0 0 0 4.31 1.76c.969.14 1.952.14 2.92 0q.745-.094 1.46-.32a8.1 8.1 0 0 0 2.84-1.44A8.75 8.75 0 0 0 90 19.51a9.4 9.4 0 0 0 .74-2.07c.09-.37.13-.76.19-1.14s.06-.77.08-1.16-.01-.79-.09-1.14m-4.2 4.7a7.4 7.4 0 0 1-1 2.81 3.75 3.75 0 0 1-4.5 1.77 4.67 4.67 0 0 1-2-1.62A9.3 9.3 0 0 1 78 19.31a19.2 19.2 0 0 1-1.08-4.87 11.7 11.7 0 0 1 .08-2.83 7.3 7.3 0 0 1 1-2.82A3.74 3.74 0 0 1 82.49 7a4.75 4.75 0 0 1 2 1.62A9.2 9.2 0 0 1 85.71 11a18.7 18.7 0 0 1 1.08 4.86c.095.936.071 1.88-.07 2.81zM93.21 23.52V0h3.34v23.52zM105.38 24a7.1 7.1 0 0 1-3-.57 5.6 5.6 0 0 1-2-1.51 7 7 0 0 1-1.16-2 10.7 10.7 0 0 1-.55-2.16 15 15 0 0 1-.14-1.86V6.24h3.39v8.5q.006 1.041.17 2.07c.102.697.319 1.373.64 2 .307.6.766 1.111 1.33 1.48.673.4 1.448.596 2.23.56a4.8 4.8 0 0 0 1.7-.3 3.56 3.56 0 0 0 1.4-.95 4.7 4.7 0 0 0 .94-1.73 8.6 8.6 0 0 0 .34-2.61v-9h3.38v17.26h-3v-2.08a6.7 6.7 0 0 1-1.68 1.56 7.53 7.53 0 0 1-3.99 1M121.35 23.52l-5.28-17.3h3.31L123 18.1l3.65-11.86h2.88l3.64 11.86 3.62-11.86h3.3l-5.28 17.28h-2.69l-4-12.51-4 12.51zM147.93 24a6.7 6.7 0 0 1-3.22-.71 5 5 0 0 1-2-1.89 5.2 5.2 0 0 1-.66-2.58 5.4 5.4 0 0 1 .46-2.31 4.6 4.6 0 0 1 1.38-1.69c.676-.5 1.434-.88 2.24-1.12a23 23 0 0 1 2.6-.6c1-.17 2-.33 3.08-.48l2-.27a4 4 0 0 0-.81-2.53 4 4 0 0 0-3.06-1 5.1 5.1 0 0 0-2.5.63 3.45 3.45 0 0 0-1.58 2.09l-3.12-1A6.5 6.5 0 0 1 145.18 7a8 8 0 0 1 4.79-1.31 9.5 9.5 0 0 1 4 .79 5 5 0 0 1 2.52 2.51c.281.56.454 1.167.51 1.79q.105.997.1 2v10.74h-3V21a6.9 6.9 0 0 1-2.1 2 8 8 0 0 1-4.07 1m.59-2.74a5.5 5.5 0 0 0 2.45-.5 4.75 4.75 0 0 0 1.64-1.29 4 4 0 0 0 .82-1.63 6 6 0 0 0 .32-1.73v-1l-1.79.27c-.86.13-1.65.25-2.34.37q-.947.166-1.87.44a6.3 6.3 0 0 0-1.22.58 2.7 2.7 0 0 0-.85.82 2.1 2.1 0 0 0-.31 1.16c-.004.436.11.864.33 1.24.24.392.587.708 1 .91a4.06 4.06 0 0 0 1.82.36M165.25 1.06h3.38l-6.14 23h-3.38zM172.73 20.21l-2.1-2.08 5.68-5.55L170.63 7l2.1-2 7.61 7.63z"/></g><defs><clipPath id="a"><path fill="#fff" d="M0 0h180.34v35.68H0z"/></clipPath></defs></svg>