<svg xmlns="http://www.w3.org/2000/svg" width="17" height="17" fill="none"><path stroke="currentColor" stroke-linecap="round" stroke-linejoin="round" d="M4.897 7.364h2.667M6.231 6.03v2.666m4.666-.666h.007m1.993-1.334h.007m-5.04-3.333H9.93c1.75 0 2.625 0 3.312.332.605.291 1.107.76 1.441 1.342.38.661.443 1.534.567 3.28l.164 2.296a1.945 1.945 0 0 1-3.434 1.383l-.25-.3c-.229-.274-.343-.412-.474-.522a2 2 0 0 0-.957-.449c-.168-.029-.347-.029-.704-.029H8.199c-.357 0-.536 0-.705.03a2 2 0 0 0-.957.447c-.13.111-.244.249-.473.523l-.25.3a1.945 1.945 0 0 1-3.434-1.383l.164-2.297c.124-1.745.187-2.618.566-3.28a3.33 3.33 0 0 1 1.442-1.341c.686-.332 1.561-.332 3.311-.332"/></svg>