<svg xmlns="http://www.w3.org/2000/svg" width="48" height="48" fill="none"><path fill="#F34F29" d="M46.778 21.892 26.109 1.224a3.05 3.05 0 0 0-4.311 0l-4.291 4.292 5.444 5.445a3.62 3.62 0 0 1 4.584 4.615l5.247 5.247a3.625 3.625 0 0 1 2.57 6.777 3.628 3.628 0 0 1-4.743-4.732l-4.893-4.893v12.878c.355.175.679.406.96.685a3.628 3.628 0 0 1-5.13 5.131c-1.417-1.419-1.533-3.714-.117-5.13.35-.35.696-.615 1.07-.792V17.75c-.374-.177-.72-.44-1.07-.792-1.073-1.072-1.274-2.647-.723-3.966l-5.338-5.367L1.211 21.796a3.05 3.05 0 0 0 .007 4.313L21.89 46.776a3.05 3.05 0 0 0 4.314 0l20.572-20.571a3.05 3.05 0 0 0 .002-4.313"/></svg>