<svg xmlns="http://www.w3.org/2000/svg" width="17" height="17" fill="none"><g clip-path="url(#a)"><path stroke="currentColor" stroke-linecap="round" stroke-linejoin="round" d="M8.897 1.364a10.2 10.2 0 0 1 2.667 6.667 10.2 10.2 0 0 1-2.667 6.666m0-13.333A10.2 10.2 0 0 0 6.231 8.03a10.2 10.2 0 0 0 2.666 6.666m0-13.333a6.667 6.667 0 0 0 0 13.333m0-13.333a6.667 6.667 0 1 1 0 13.333M2.564 6.031h12.667m-12.667 4h12.667"/></g><defs><clipPath id="a"><path fill="none" d="M.897.03h16v16h-16z"/></clipPath></defs></svg>