<svg xmlns="http://www.w3.org/2000/svg" width="29" height="29" fill="none"><path fill="snow" d="M14.02.246c-3.803 0-4.278.017-5.771.084C6.758.4 5.743.634 4.85.98a6.86 6.86 0 0 0-2.48 1.615 6.8 6.8 0 0 0-1.615 2.48c-.346.893-.582 1.908-.65 3.4-.07 1.492-.085 1.967-.085 5.77 0 3.804.018 4.279.084 5.772.07 1.49.305 2.506.651 3.399.352.934.903 1.78 1.615 2.48a6.85 6.85 0 0 0 2.48 1.615c.894.345 1.909.582 3.399.65 1.493.07 1.968.085 5.771.085s4.278-.018 5.772-.084c1.49-.07 2.506-.306 3.398-.651a6.9 6.9 0 0 0 2.48-1.615 6.8 6.8 0 0 0 1.615-2.48c.346-.893.582-1.91.651-3.399.07-1.493.084-1.968.084-5.771s-.017-4.279-.084-5.772c-.07-1.49-.305-2.507-.65-3.398a6.9 6.9 0 0 0-1.615-2.48A6.8 6.8 0 0 0 23.19.98c-.893-.347-1.91-.583-3.4-.651-1.493-.07-1.967-.084-5.77-.084m0 2.52c3.737 0 4.183.018 5.659.082 1.365.065 2.105.29 2.598.485.655.253 1.12.556 1.612 1.045.489.49.792.955 1.045 1.611.192.492.42 1.233.482 2.598.067 1.477.082 1.92.082 5.659s-.018 4.182-.086 5.658c-.072 1.365-.3 2.106-.492 2.598a4.44 4.44 0 0 1-1.048 1.612 4.4 4.4 0 0 1-1.61 1.046c-.49.191-1.243.42-2.608.482-1.486.066-1.924.081-5.669.081-3.746 0-4.183-.017-5.669-.086-1.366-.071-2.118-.299-2.608-.491a4.3 4.3 0 0 1-1.61-1.05 4.25 4.25 0 0 1-1.05-1.61c-.192-.49-.418-1.242-.49-2.607-.052-1.47-.07-1.923-.07-5.65 0-3.73.018-4.185.07-5.672.072-1.365.298-2.116.49-2.606.246-.665.56-1.12 1.05-1.612.49-.488.946-.803 1.61-1.047.49-.194 1.226-.421 2.59-.491 1.488-.053 1.926-.07 5.67-.07zm0 4.29a7.189 7.189 0 1 0 0 14.378 7.189 7.189 0 0 0 0-14.377m0 11.856a4.665 4.665 0 0 1-4.666-4.666 4.665 4.665 0 0 1 4.666-4.667 4.665 4.665 0 0 1 4.667 4.667 4.665 4.665 0 0 1-4.667 4.666m9.154-12.139a1.681 1.681 0 0 1-3.36 0 1.68 1.68 0 1 1 3.36 0"/></svg>