<svg xmlns="http://www.w3.org/2000/svg" width="48" height="48" fill="none"><path fill="#F0DB4F" d="M.528.528h46.944v46.944H.528z"/><path fill="#323330" d="M43.63 36.276c-.344-2.142-1.74-3.94-5.877-5.618-1.437-.66-3.039-1.133-3.516-2.222-.17-.634-.192-.99-.085-1.375.308-1.244 1.794-1.633 2.972-1.276.758.255 1.477.84 1.91 1.772 2.026-1.312 2.021-1.303 3.436-2.205-.518-.803-.794-1.173-1.133-1.517-1.219-1.36-2.879-2.061-5.534-2.008l-1.383.18c-1.325.334-2.588 1.03-3.329 1.962-2.222 2.522-1.588 6.935 1.116 8.75 2.664 2 6.577 2.455 7.077 4.325.487 2.289-1.682 3.03-3.837 2.767-1.589-.33-2.473-1.138-3.428-2.606-1.758 1.017-1.758 1.017-3.565 2.057.428.937.879 1.361 1.597 2.173 3.4 3.45 11.91 3.28 13.437-1.941.062-.18.473-1.375.142-3.218M26.048 22.104h-4.39l-.019 11.352c0 2.414.125 4.627-.267 5.305-.643 1.335-2.307 1.17-3.066.91-.772-.379-1.165-.919-1.62-1.681-.125-.22-.218-.389-.25-.402l-3.57 2.186c.594 1.219 1.468 2.276 2.589 2.963 1.673 1.005 3.922 1.312 6.274.772 1.53-.446 2.851-1.37 3.543-2.775 1-1.843.785-4.074.776-6.541.022-4.026 0-8.051 0-12.09"/></svg>