<svg xmlns="http://www.w3.org/2000/svg" width="25" height="24" fill="none"><path stroke="currentColor" stroke-linecap="round" stroke-linejoin="round" stroke-opacity=".8" stroke-width="2" d="M7.5 8.499h5m-5 3.5h8m-8 6v2.335c0 .533 0 .8.11.937a.5.5 0 0 0 .39.188c.176 0 .384-.167.8-.5l2.385-1.908c.487-.39.731-.585 1.002-.723q.363-.185.762-.268c.299-.061.61-.061 1.235-.061H16.7c1.68 0 2.52 0 3.162-.327a3 3 0 0 0 1.311-1.311c.327-.642.327-1.482.327-3.162v-5.4c0-1.68 0-2.52-.327-3.162a3 3 0 0 0-1.311-1.311c-.642-.327-1.482-.327-3.162-.327H8.3c-1.68 0-2.52 0-3.162.327a3 3 0 0 0-1.311 1.311C3.5 5.28 3.5 6.12 3.5 7.8v6.2c0 .93 0 1.395.102 1.776a3 3 0 0 0 2.122 2.122c.381.102.846.102 1.776.102"/></svg>