<svg xmlns="http://www.w3.org/2000/svg" width="25" height="24" fill="none"><path stroke="currentColor" stroke-linecap="round" stroke-linejoin="round" stroke-width="2" d="M9.898 14s1.313 1.5 3.5 1.5 3.5-1.5 3.5-1.5m-.75-5h.01m-5.51 0h.01m2.74 11a8.5 8.5 0 1 0-8.057-5.783c.109.32.163.481.172.604a.9.9 0 0 1-.027.326c-.03.12-.098.245-.233.494l-1.635 3.027c-.234.432-.35.648-.324.815a.5.5 0 0 0 .233.35c.144.087.388.062.877.011l5.12-.529c.156-.016.233-.024.304-.021s.119.009.186.024c.07.016.156.05.33.116a8.5 8.5 0 0 0 3.054.566m3.25-11a.5.5 0 1 1-1 0 .5.5 0 0 1 1 0m-5.5 0a.5.5 0 1 1-1 0 .5.5 0 0 1 1 0"/></svg>