<svg xmlns="http://www.w3.org/2000/svg" width="48" height="48" fill="none"><path fill="#4FAA41" fill-rule="evenodd" d="M31.05 12.836c-.976-3.04-2.542-5.731-4.75-8.047-.558-.586-1.178-1.122-1.567-1.85-.246-.462-.48-.93-.72-1.394l-.152-.383-.043.15c-.02.758-.449 1.272-.983 1.751-.601.54-1.16 1.125-1.738 1.691L19.321 7.09l-1.436 2.64-.96 2.594-.03.04c-.527 1.736-.788 3.521-.916 5.323-.048.678.007 1.365.045 2.046.054.973.223 1.93.477 2.872.921 3.423 2.791 6.261 5.349 8.673.474.448.988.856 1.483 1.282l.22.753.203 1.168.098 1.22c-.001.248-.011.496.003.743.005.063.087.122.134.183l.413.145.431.168-.073-1.084-.004-1.068.149-1.627.108-.354.31-.548c.381-.307.79-.586 1.138-.927.629-.618 1.256-1.244 1.82-1.921a14.4 14.4 0 0 0 1.863-2.864c.337-.687.655-1.388.918-2.106.232-.633.375-1.299.558-1.95l.048-.141c.377-1.758.44-3.534.302-5.321-.112-1.44-.45-2.83-.921-4.193M23.589 31.69c.058-.289.13-.576.182-.867-.052.29-.124.578-.182.867m1.281.2-.242-.53zl.356.304zm15.058 6.723a3 3 0 0 0-1.365-1.34 3.8 3.8 0 0 0-1.6-.373c-.418-.012-.836.01-1.254.015-.37.004-.742.01-1.113.007-.436-.004-.872-.017-1.308-.03-.073-.002-.124.013-.158.086-.053.115-.115.225-.18.35l.073.023c.216.039.434.071.649.114.276.056.401.215.414.448q.027.498.025.998-.01 1.977-.025 3.953a1 1 0 0 1-.026.26c-.027.094-.057.216-.127.263-.127.081-.27.135-.418.159-.21.035-.246.044-.312.25l-.028.104c-.032.113-.015.135.103.136.676.008 1.351.023 2.026.02.617-.002 1.233.036 1.847-.08.58-.11 1.121-.3 1.616-.624.64-.42 1.102-.982 1.345-1.715.197-.593.24-1.197.174-1.816a3.4 3.4 0 0 0-.358-1.209m-1.184 3.622c-.361.673-.9 1.122-1.671 1.24-.483.075-.966.053-1.426-.13-.291-.115-.4-.366-.409-.664a31 31 0 0 1-.012-.874q-.003-1.537 0-3.076.002-.484.011-.97c.004-.227.052-.303.273-.321.974-.082 1.903.023 2.674.708.477.424.749.964.861 1.585.047.259.062.523.09.786-.023.6-.104 1.182-.39 1.716m8.171-1.11c-.192-.467-.556-.76-1.013-.948-.156-.064-.317-.117-.485-.179l.059-.037c.182-.117.384-.211.541-.355.381-.349.54-.788.465-1.31-.07-.496-.318-.86-.76-1.096-.401-.214-.834-.292-1.282-.291-.775 0-1.55.012-2.324.013-.267 0-.534-.02-.801-.023-.052 0-.129.012-.151.047-.061.094-.102.202-.145.306q-.036.09.069.103.279.041.559.085c.258.039.383.173.398.433l.004.154c0 .808.003 1.616 0 2.424a343 343 0 0 1-.023 2.421 2 2 0 0 1-.03.305c-.022.152-.103.257-.26.29l-.44.087c-.053.01-.128.01-.15.041-.08.122-.146.254-.137.414l.045.012 1.483.036h.297c.513-.007 1.027.004 1.54-.023a3.4 3.4 0 0 0 1.556-.475c.513-.302.907-.7 1.047-1.298.09-.383.09-.767-.062-1.136m-3.766-3.443c.002-.162.074-.233.235-.237.397-.01.792-.009 1.175.128.496.177.8.605.795 1.127-.003.2 0 .4-.073.592-.146.38-.426.58-.823.62-.207.02-.416.022-.6.032l-.616-.027c-.082-.003-.117-.039-.117-.123zm2.552 5.06c-.198.432-.56.659-1.012.738a2.6 2.6 0 0 1-1.085-.048c-.264-.068-.372-.28-.425-.516-.036-.158-.03-.346-.033-.51-.005-.254-.001-.78-.001-.78h-.005l-.001-1.06c0-.077.012-.116.107-.113.337.01.675.016 1.012.03.3.01.583.1.848.243.403.218.646.55.713 1.008.051.347.03.688-.118 1.008m-36.97.405.007-2.04a2.7 2.7 0 0 0-.138-.898c-.277-.801-1.041-1.166-1.837-.878-.362.13-.686.329-.996.554-.18.131-.18.131-.311-.056-.37-.53-.897-.71-1.511-.515-.397.126-.745.341-1.073.592-.031.023-.093.049-.111.035-.031-.023-.053-.077-.052-.118l.023-.362c.002-.076-.013-.153-.02-.233-.15.052-.268.103-.392.133-.383.094-.77.18-1.155.268-.094.022-.192.05-.201.157-.01.105.092.123.17.154q.248.101.495.21c.137.06.189.17.188.318-.003.632.002 1.263-.002 1.895-.002.257-.014.514-.025.77-.01.228-.088.323-.309.38-.117.032-.236.052-.354.08-.025.006-.07.022-.07.035-.005.111-.011.225.008.334.004.02.121.02.187.027l.043-.003q.683-.011 1.364-.018c.241-.003.482 0 .744 0l.028-.365c-.15-.027-.284-.048-.416-.076-.206-.046-.293-.155-.299-.362l-.003-.298q-.005-1.157-.006-2.313-.001-.168.145-.269c.21-.14.43-.253.674-.315.514-.132.96.051 1.159.489.062.138.111.29.125.44.073.773.042 1.547-.002 2.32-.01.168-.088.252-.253.292l-.387.082c-.03.008-.076-.013-.078.013-.01.107-.004.27-.004.27h.092l1.178.04c.323-.001.646.038.969.046.058.001.109.01.112-.057a3 3 0 0 0-.004-.311l-.061-.01-.332-.075c-.224-.053-.301-.139-.302-.365-.003-.558.005-1.116 0-1.674q-.005-.48-.036-.957c-.005-.085.008-.14.075-.188.196-.143.416-.249.65-.313.726-.191 1.32.207 1.357.955.037.721.021 1.445.016 2.168-.002.252-.085.328-.333.396l-.086.022c-.254.06-.251.06-.236.33.005.085.028.106.118.104.517-.012 1.034-.015 1.551-.02h.653l.047-.35c-.202-.054-.388-.093-.568-.152-.16-.054-.215-.15-.215-.318m17.809-3.09c.213-.198.214-.46.154-.75a.84.84 0 0 1-.573.274c-.289.02-.573-.004-.842-.12-.728-.312-1.445-.29-2.16.053-.601.288-.971.737-1.008 1.418-.024.436.058.849.349 1.195a1.5 1.5 0 0 0 .65.436q.165.059.026.161-.101.075-.208.142-.23.144-.46.283c-.09.055-.121.125-.092.232.087.314.31.495.59.628l.1.07-.088.09c-.274.221-.558.43-.82.666-.22.197-.29.462-.224.754.134.583.52.944 1.07 1.11.958.29 1.859.123 2.68-.445.486-.337.835-.776.942-1.38.118-.678-.259-1.267-.933-1.388-.446-.081-.903-.104-1.355-.156-.21-.024-.424-.038-.63-.087-.174-.04-.26-.183-.244-.322.016-.136.161-.263.327-.276.335-.027.663-.08.97-.22.817-.374 1.197-1.028 1.102-1.909-.013-.118-.04-.235-.064-.373.261.044.529.11.74-.087m-2.479 4.13c.332.01.71.031 1.076.138.321.094.585.258.663.617.095.433-.114.864-.534 1.096-.393.217-.82.235-1.252.19-.37-.038-.704-.166-.97-.44-.353-.36-.354-.859-.002-1.218.314-.321.483-.388 1.02-.382m.832-2.61c-.194.619-.757.705-1.198.507-.377-.169-.54-.5-.626-.879-.034-.145-.042-.296-.061-.445.008-.214.043-.418.135-.61.282-.592.973-.556 1.356-.289a.97.97 0 0 1 .35.456c.16.402.175.847.044 1.26m-3.514 1.974a3 3 0 0 1-.396-.089c-.229-.07-.256-.112-.259-.354q-.009-1.008-.019-2.015c-.003-.303-.04-.6-.132-.89-.244-.76-.99-1.17-1.737-.945-.414.125-.77.357-1.101.63l-.12.093v-.125c.008-.142.023-.285.022-.428-.001-.075-.03-.15-.043-.215-.283.085-.536.17-.794.235-.26.066-.524.11-.786.163-.13.026-.226.105-.223.195.003.126.108.15.2.188q.248.101.494.21c.117.052.165.148.164.274-.009.874-.014 1.747-.027 2.621-.003.276-.073.349-.345.41l-.118.023c-.251.043-.259.053-.241.319l.001.043c-.003.102.042.135.147.134q1-.012 2.003-.009c.286.001.317-.021.31-.315l-.013-.127c-.163-.027-.32-.047-.473-.08-.16-.036-.217-.102-.232-.265a5 5 0 0 1-.02-.45q-.012-1.03-.017-2.059c0-.173.031-.333.19-.445.234-.167.51-.266.797-.285.596-.041 1.048.312 1.08.905.04.733.028 1.468.037 2.201.001.055-.009.11-.016.165-.014.107-.067.188-.175.215a3 3 0 0 1-.323.07c-.161.023-.165.022-.177.185l.004.11c.02.19.02.184.212.182q.967-.008 1.936-.008c.27.001.29-.012.292-.29l-.001-.066c.004-.071-.028-.1-.101-.111m9.02-4.247c-.677-.165-1.32-.042-1.93.273-.592.307-.988.78-1.139 1.434a2.87 2.87 0 0 0 .213 1.92c.19.399.483.707.881.907.932.47 2.073.257 2.804-.371.577-.495.789-1.155.802-1.971-.008-.082-.016-.24-.038-.396-.122-.888-.738-1.586-1.594-1.796m.512 3.434c-.18.707-.791 1.021-1.481.778a1.43 1.43 0 0 1-.793-.68 2.94 2.94 0 0 1-.253-2.318c.154-.535.594-.827 1.116-.79.468.033.827.257 1.09.637.278.402.386.858.414 1.337.005.077 0 .154 0 .231l.034.004c-.041.267-.061.54-.127.8m-17.536-3.445c-.713-.163-1.38-.002-1.998.36-.534.313-.88.78-1.012 1.39a2.95 2.95 0 0 0 .129 1.678c.123.333.31.626.582.854.576.48 1.249.602 1.965.468.606-.114 1.138-.383 1.525-.887.363-.47.5-1.011.515-1.598-.022-.185-.027-.374-.066-.555-.196-.904-.725-1.501-1.64-1.71m.58 3.442c-.173.704-.795 1.026-1.48.783-.44-.157-.726-.479-.907-.892a3.04 3.04 0 0 1-.162-2.053c.144-.535.578-.93 1.242-.835.408.058.726.266.963.597.32.447.425.958.44 1.496v.11l.027.004c-.04.264-.059.532-.123.79" clip-rule="evenodd"/></svg>