<svg xmlns="http://www.w3.org/2000/svg" width="48" height="48" fill="none"><path fill="#83CD29" d="M42.254 11.375 25.701 1.773c-1.043-.594-2.41-.594-3.46 0L5.558 11.375c-1.076.62-1.808 1.783-1.808 3.028V33.58c0 1.244.747 2.408 1.823 3.031l4.399 2.508c2.11 1.04 2.694 1.04 3.654 1.04 3.126 0 4.749-1.89 4.749-5.186V16.04c0-.267.167-.665-.096-.665h-2.108c-.267 0-.796.398-.796.665v18.934c0 1.46-1.356 2.915-3.826 1.68l-4.545-2.63a.5.5 0 0 1-.254-.443V14.403c0-.181.174-.363.334-.455l16.642-9.586a.57.57 0 0 1 .53 0l16.487 9.583c.157.095.132.271.132.458V33.58c0 .183.035.361-.12.45l-16.55 9.59a.49.49 0 0 1-.482 0l-4.244-2.53c-.128-.075-.282-.102-.405-.033-1.18.669-1.399.758-2.505 1.141-.273.095-.675.26.153.724l5.55 3.282a3.489 3.489 0 0 0 3.492 0l16.49-9.593c1.077-.627 1.621-1.787 1.621-3.031V14.403c0-1.245-.544-2.406-1.62-3.028M29.148 30.542c-4.398 0-5.366-1.213-5.69-3.4-.037-.235-.237-.517-.477-.517h-2.149c-.265 0-.48.323-.48.587 0 2.8 1.523 6.192 8.796 6.192 5.264 0 8.283-2.045 8.283-5.666 0-3.59-2.425-4.531-7.531-5.207-5.16-.682-5.685-1.027-5.685-2.236 0-.996.444-2.326 4.265-2.326 3.414 0 4.673.733 5.19 3.034a.474.474 0 0 0 .466.372h2.158c.132 0 .259-.054.352-.148a.49.49 0 0 0 .126-.368c-.335-3.963-2.968-5.81-8.292-5.81-4.737 0-7.562 2-7.562 5.353 0 3.637 2.81 4.642 7.358 5.092 5.44.533 5.862 1.328 5.862 2.398 0 1.858-1.492 2.65-4.99 2.65"/></svg>