<svg xmlns="http://www.w3.org/2000/svg" width="25" height="24" fill="none"><path stroke="currentColor" stroke-linecap="round" stroke-linejoin="round" stroke-width="2" d="M7.573 4.5a2.5 2.5 0 1 1 5 0V6h1c1.398 0 2.097 0 2.648.228a3 3 0 0 1 1.624 1.624c.228.551.228 1.25.228 2.648h1.5a2.5 2.5 0 1 1 0 5h-1.5v1.7c0 1.68 0 2.52-.327 3.162a3 3 0 0 1-1.31 1.311c-.643.327-1.483.327-3.163.327h-.7v-1.75a2.25 2.25 0 1 0-4.5 0V22h-1.2c-1.68 0-2.52 0-3.162-.327a3 3 0 0 1-1.31-1.311c-.328-.642-.328-1.482-.328-3.162v-1.7h1.5a2.5 2.5 0 0 0 0-5h-1.5c0-1.398 0-2.097.229-2.648a3 3 0 0 1 1.623-1.624C4.477 6 5.175 6 6.573 6h1z"/></svg>