<svg width="48" height="48" viewBox="0 0 48 48" fill="none" xmlns="http://www.w3.org/2000/svg">
<path d="M24.0006 28.275C26.3616 28.275 28.2756 26.361 28.2756 24C28.2756 21.639 26.3616 19.725 24.0006 19.725C21.6396 19.725 19.7256 21.639 19.7256 24C19.7256 26.361 21.6396 28.275 24.0006 28.275Z" fill="#61DAFB"/>
<path d="M40.2379 16.95C39.4129 16.65 38.5504 16.35 37.6504 16.0875C37.8754 15.1875 38.0629 14.2875 38.2129 13.425C39.0004 8.47498 38.1379 4.98748 35.7379 3.63748C35.0254 3.22498 34.2379 3.03748 33.3379 3.03748C30.7129 3.03748 27.3754 4.98748 24.0004 8.24998C20.6254 4.98748 17.2879 3.03748 14.6629 3.03748C13.7629 3.03748 12.9754 3.22498 12.2629 3.63748C9.86289 5.02498 9.00039 8.51248 9.78789 13.425C9.93789 14.2875 10.1254 15.1875 10.3504 16.0875C9.45039 16.35 8.58789 16.6125 7.76289 16.95C3.07539 18.75 0.525391 21.225 0.525391 24C0.525391 26.775 3.11289 29.25 7.76289 31.05C8.58789 31.35 9.45039 31.65 10.3504 31.9125C10.1254 32.8125 9.93789 33.7125 9.78789 34.575C9.00039 39.525 9.86289 43.0125 12.2629 44.3625C12.9754 44.775 13.7629 44.9625 14.6629 44.9625C17.3254 44.9625 20.6629 43.0125 24.0004 39.75C27.3754 43.0125 30.7129 44.9625 33.3379 44.9625C34.2379 44.9625 35.0254 44.775 35.7379 44.3625C38.1379 42.975 39.0004 39.4875 38.2129 34.575C38.0629 33.7125 37.8754 32.8125 37.6504 31.9125C38.5504 31.65 39.4129 31.3875 40.2379 31.05C44.9254 29.25 47.4754 26.775 47.4754 24C47.4754 21.225 44.9254 18.75 40.2379 16.95V16.95ZM34.6879 5.51248C36.2254 6.41248 36.7504 9.18748 36.1129 13.125C36.0004 13.9125 35.8129 14.7375 35.5879 15.6C33.6379 15.15 31.5754 14.85 29.4004 14.6625C28.1254 12.8625 26.8129 11.25 25.5004 9.78748C28.2754 7.04998 31.0879 5.17498 33.3754 5.17498C33.8629 5.17498 34.3129 5.28748 34.6879 5.51248V5.51248ZM30.4879 27.75C29.8129 28.95 29.0254 30.15 28.2004 31.35C26.8129 31.4625 25.4254 31.5 24.0004 31.5C22.5379 31.5 21.1504 31.4625 19.8004 31.35C18.9754 30.15 18.2254 28.95 17.5504 27.75C16.8379 26.5125 16.1629 25.2375 15.5629 24C16.1629 22.7625 16.8379 21.4875 17.5504 20.25C18.2254 19.05 19.0129 17.85 19.8379 16.65C21.2254 16.5375 22.6129 16.5 24.0379 16.5C25.5004 16.5 26.8879 16.5375 28.2379 16.65C29.0629 17.85 29.8129 19.05 30.4879 20.25C31.2004 21.4875 31.8754 22.7625 32.4754 24C31.8379 25.2375 31.2004 26.475 30.4879 27.75ZM33.6004 26.5125C34.1629 27.825 34.6129 29.1 35.0254 30.375C33.7504 30.675 32.4004 30.9 30.9754 31.0875C31.4254 30.375 31.9129 29.625 32.3254 28.8375C32.7754 28.05 33.1879 27.2625 33.6004 26.5125ZM24.0004 36.675C23.1004 35.7 22.2379 34.65 21.4129 33.5625C22.2754 33.6 23.1379 33.6375 24.0004 33.6375C24.8629 33.6375 25.7254 33.6 26.5879 33.5625C25.7629 34.65 24.9004 35.7 24.0004 36.675ZM17.0254 31.05C15.6004 30.8625 14.2504 30.6375 12.9754 30.3375C13.3879 29.1 13.8379 27.7875 14.4004 26.475C14.8129 27.225 15.2254 28.0125 15.6754 28.7625C16.1254 29.5875 16.5754 30.3 17.0254 31.05V31.05ZM14.4004 21.4875C13.8379 20.175 13.3879 18.9 12.9754 17.625C14.2504 17.325 15.6004 17.1 17.0254 16.9125C16.5754 17.625 16.0879 18.375 15.6754 19.1625C15.2254 19.95 14.8129 20.7375 14.4004 21.4875V21.4875ZM24.0004 11.325C24.9004 12.3 25.7629 13.35 26.5879 14.4375C25.7254 14.4 24.8629 14.3625 24.0004 14.3625C23.1379 14.3625 22.2754 14.4 21.4129 14.4375C22.2379 13.35 23.1004 12.3 24.0004 11.325ZM32.3254 19.2L30.9754 16.95C32.4004 17.1375 33.7504 17.3625 35.0254 17.6625C34.6129 18.9 34.1629 20.2125 33.6004 21.525C33.1879 20.7375 32.7754 19.95 32.3254 19.2ZM11.8879 13.125C11.2504 9.18748 11.7754 6.41248 13.3129 5.51248C13.6879 5.28748 14.1379 5.17498 14.6254 5.17498C16.8754 5.17498 19.6879 7.01248 22.5004 9.78748C21.1879 11.2125 19.8754 12.8625 18.6004 14.6625C16.4254 14.85 14.3629 15.1875 12.4129 15.6C12.1879 14.7375 12.0379 13.9125 11.8879 13.125V13.125ZM2.62539 24C2.62539 22.2375 4.76289 20.3625 8.51289 18.975C9.26289 18.675 10.0879 18.4125 10.9129 18.1875C11.5129 20.0625 12.2629 22.05 13.1629 24.0375C12.2629 26.025 11.4754 27.975 10.9129 29.85C5.73789 28.35 2.62539 26.1 2.62539 24ZM13.3129 42.4875C11.7754 41.5875 11.2504 38.8125 11.8879 34.875C12.0004 34.0875 12.1879 33.2625 12.4129 32.4C14.3629 32.85 16.4254 33.15 18.6004 33.3375C19.8754 35.1375 21.1879 36.75 22.5004 38.2125C19.7254 40.95 16.9129 42.825 14.6254 42.825C14.1379 42.825 13.6879 42.7125 13.3129 42.4875ZM36.1129 34.875C36.7504 38.8125 36.2254 41.5875 34.6879 42.4875C34.3129 42.7125 33.8629 42.825 33.3754 42.825C31.1254 42.825 28.3129 40.9875 25.5004 38.2125C26.8129 36.7875 28.1254 35.1375 29.4004 33.3375C31.5754 33.15 33.6379 32.8125 35.5879 32.4C35.8129 33.2625 35.9629 34.0875 36.1129 34.875V34.875ZM39.4879 29.025C38.7379 29.325 37.9129 29.5875 37.0879 29.8125C36.4879 27.9375 35.7379 25.95 34.8379 23.9625C35.7379 21.975 36.5254 20.025 37.0879 18.15C42.2629 19.65 45.3754 21.9 45.3754 24C45.3754 25.7625 43.2004 27.6375 39.4879 29.025Z" fill="#61DAFB"/>
</svg>
