<svg xmlns="http://www.w3.org/2000/svg" width="48" height="48" fill="none"><path fill="#61DAFB" d="M24 28.275a4.275 4.275 0 1 0 0-8.55 4.275 4.275 0 0 0 0 8.55"/><path fill="#61DAFB" d="M40.238 16.95c-.825-.3-1.688-.6-2.588-.863.225-.9.413-1.8.563-2.662.787-4.95-.075-8.438-2.475-9.788-.713-.412-1.5-.6-2.4-.6-2.625 0-5.963 1.95-9.338 5.213-3.375-3.263-6.712-5.213-9.337-5.213-.9 0-1.688.188-2.4.6C9.863 5.025 9 8.512 9.788 13.425c.15.862.337 1.762.562 2.662-.9.263-1.762.526-2.587.863C3.075 18.75.525 21.225.525 24s2.588 5.25 7.238 7.05c.825.3 1.687.6 2.587.863-.225.9-.412 1.8-.562 2.662-.788 4.95.075 8.438 2.475 9.787.712.413 1.5.6 2.4.6 2.662 0 6-1.95 9.337-5.212 3.375 3.263 6.713 5.212 9.338 5.212.9 0 1.687-.187 2.4-.6 2.4-1.387 3.262-4.875 2.475-9.787a38 38 0 0 0-.563-2.663c.9-.262 1.763-.524 2.588-.862 4.687-1.8 7.237-4.275 7.237-7.05s-2.55-5.25-7.237-7.05m-5.55-11.438c1.537.9 2.062 3.675 1.425 7.613-.113.787-.3 1.613-.525 2.475-1.95-.45-4.013-.75-6.188-.937a54 54 0 0 0-3.9-4.876c2.775-2.737 5.588-4.612 7.875-4.612.488 0 .938.112 1.313.337m-4.2 22.238c-.675 1.2-1.463 2.4-2.288 3.6a52 52 0 0 1-4.2.15c-1.462 0-2.85-.038-4.2-.15q-1.238-1.8-2.25-3.6A60 60 0 0 1 15.563 24a60 60 0 0 1 1.987-3.75c.675-1.2 1.463-2.4 2.288-3.6a52 52 0 0 1 4.2-.15c1.462 0 2.85.038 4.2.15q1.238 1.8 2.25 3.6A60 60 0 0 1 32.475 24a123 123 0 0 1-1.987 3.75m3.112-1.238a44 44 0 0 1 1.425 3.863c-1.275.3-2.625.525-4.05.712.45-.712.938-1.462 1.35-2.25.45-.787.863-1.575 1.275-2.325M24 36.676a42 42 0 0 1-2.587-3.112c.862.037 1.725.075 2.587.075s1.725-.038 2.588-.075A42 42 0 0 1 24 36.675m-6.975-5.625c-1.425-.187-2.775-.413-4.05-.713.413-1.237.863-2.55 1.425-3.862.413.75.825 1.537 1.275 2.287.45.825.9 1.538 1.35 2.288M14.4 21.488a44 44 0 0 1-1.425-3.863c1.275-.3 2.625-.525 4.05-.712-.45.712-.937 1.462-1.35 2.25-.45.787-.862 1.575-1.275 2.325M24 11.325c.9.975 1.763 2.025 2.588 3.113A60 60 0 0 0 24 14.363c-.862 0-1.725.037-2.587.075A42 42 0 0 1 24 11.325m8.325 7.875-1.35-2.25c1.425.188 2.775.413 4.05.713-.412 1.237-.862 2.55-1.425 3.862-.412-.787-.825-1.575-1.275-2.325m-20.437-6.075c-.638-3.938-.113-6.713 1.425-7.613.375-.225.825-.337 1.312-.337 2.25 0 5.063 1.837 7.875 4.612-1.312 1.425-2.625 3.076-3.9 4.875a51 51 0 0 0-6.187.938c-.225-.862-.375-1.687-.525-2.475M2.625 24c0-1.762 2.138-3.637 5.888-5.025.75-.3 1.575-.562 2.4-.788.6 1.875 1.35 3.863 2.25 5.85-.9 1.988-1.688 3.938-2.25 5.813-5.175-1.5-8.288-3.75-8.288-5.85m10.688 18.487c-1.538-.9-2.063-3.675-1.425-7.612.112-.788.3-1.612.525-2.475 1.95.45 4.012.75 6.187.938a54 54 0 0 0 3.9 4.874c-2.775 2.738-5.587 4.613-7.875 4.613-.487 0-.937-.113-1.312-.338m22.8-7.612c.637 3.938.112 6.712-1.425 7.612-.375.225-.825.338-1.313.338-2.25 0-5.062-1.838-7.875-4.613 1.313-1.425 2.625-3.075 3.9-4.875a51 51 0 0 0 6.188-.937c.225.863.375 1.688.525 2.475m3.375-5.85c-.75.3-1.575.563-2.4.788a55 55 0 0 0-2.25-5.85c.9-1.988 1.687-3.938 2.25-5.813 5.175 1.5 8.287 3.75 8.287 5.85 0 1.762-2.175 3.637-5.887 5.025"/></svg>