<svg xmlns="http://www.w3.org/2000/svg" width="16" height="16" fill="none"><path fill="currentColor" d="M13.362.188H2.382A2.353 2.353 0 0 0 .029 2.54v10.98c0 1.3 1.053 2.354 2.353 2.354h10.98c1.3 0 2.353-1.054 2.353-2.353V2.54c0-1.3-1.053-2.353-2.353-2.353"/><path fill="#fff" d="M7.933 2.884c-2.94 1.01-4.84 3.063-4.657 4.289.184 1.225 2.022 2.206 2.85 2.849-1.073.551-2.42 1.379-2.39 2.451.061 1.47 1.654 1.011 2.328.582s1.348-1.624.92-2.88c.95-.245 1.776.061 2.022.245.95.674.46 1.44.122 1.563-.337.122-.122.184.092.122.214-.061.674-.367.674-.888 0-1.318-1.41-1.93-3.156-1.47-1.01-1.073-2.39-1.563-2.328-2.727.03-.43.184-1.532 2.91-2.911s4.657-.827 4.412.429c-.367 1.9-3.676 3.186-4.84 2.083-.062-.122-.276-.214-.154.123.613 1.532 5.576.827 5.79-2.42.062-1.716-2.42-2.176-4.595-1.44m-2.635 9.803c-.765.245-.735-.245-.704-.428.092-.521.52-1.165 1.807-1.808.368 1.164-.46 2.053-1.103 2.236"/></svg>