<svg width="101" height="62" viewBox="0 0 101 62" fill="none" xmlns="http://www.w3.org/2000/svg">
<path d="M32.3377 61.7187L40.0177 50.7108C29.7777 42.5187 23.4631 36.8014 21.0737 33.5587C20.3911 32.5347 19.9644 31.7667 19.7938 31.2547H20.8177C24.7431 31.2547 28.0711 29.8041 30.8018 26.9028C33.5324 24.0014 34.8978 20.5028 34.8978 16.4068C34.8978 11.9694 33.2764 8.21475 30.0337 5.14275C26.7911 2.07074 22.8658 0.534744 18.2578 0.534744C13.3084 0.534744 9.12708 2.32675 5.71375 5.91075C2.30042 9.66542 0.59375 14.1881 0.59375 19.4787C0.59375 34.1561 11.1751 48.2361 32.3377 61.7187ZM80.2098 31.2547H81.2338C85.1591 31.2547 88.4871 29.8041 91.2178 26.9028C93.9484 24.0014 95.3138 20.5028 95.3138 16.4068C95.3138 11.9694 93.6924 8.21475 90.4498 5.14275C87.2071 2.07074 83.2818 0.534744 78.6738 0.534744C73.7244 0.534744 69.5431 2.32675 66.1298 5.91075C62.7164 9.66542 61.0098 14.1881 61.0098 19.4787C61.0098 34.1561 71.5911 48.2361 92.7538 61.7187L100.434 50.7108C90.1938 42.5187 83.8791 36.8014 81.4898 33.5587C80.8071 32.5347 80.3804 31.7667 80.2098 31.2547Z" fill="#60798A" fill-opacity="0.4"/>
</svg>
