<svg xmlns="http://www.w3.org/2000/svg" width="101" height="62" fill="none"><path fill="#60798A" fill-opacity=".4" d="m32.338 61.719 7.68-11.008q-15.36-12.289-18.944-17.152-1.025-1.536-1.28-2.304h1.024q5.887 0 9.984-4.352 4.096-4.352 4.096-10.496 0-6.656-4.864-11.264T18.258.535q-7.424 0-12.544 5.376-5.12 5.631-5.12 13.568 0 22.015 31.744 42.24M80.21 31.255h1.024q5.887 0 9.984-4.352 4.095-4.352 4.096-10.496 0-6.656-4.864-11.264T78.674.535Q71.25.535 66.13 5.91q-5.12 5.631-5.12 13.568 0 22.015 31.744 42.24l7.68-11.008Q85.074 38.422 81.49 33.559q-1.025-1.536-1.28-2.304"/></svg>