<svg xmlns="http://www.w3.org/2000/svg" width="16" height="30" fill="none"><g fill="#A3EACB" clip-path="url(#a)"><path d="M.127 11.976 0 29.474h3.31l.128-12.161c-1.79-1.75-3.31-2.336-3.31-5.337"/><path d="M14.947 4.436q-.02-.05-.04-.1c-.014-.031-.026-.045-.04-.07-.012-.025-.037-.091-.06-.134-.047-.086-.098-.159-.145-.242a8 8 0 0 0-.963-1.414 6.7 6.7 0 0 0-1.477-1.312Q10.472 0 8.073 0h-.087a7 7 0 0 0-.89.06C5.91.188 4.88.549 4.015 1.157c-.146.105-.268.23-.404.348a7 7 0 0 0-.558.469C1.265 3.605.118 6.103.118 8.907c0 2.997 1.312 5.641 3.31 7.256q.151.12.307.235c.105.075.19.159.293.23a6.2 6.2 0 0 0 2.255.972c.127.03.255.06.393.082.14.023.246.047.37.065q.466.065.937.068h.149a7.6 7.6 0 0 0 2.897-.545c.069-.028.143-.048.21-.078q.32-.146.618-.33c.09-.052.19-.09.279-.148q.02-.017.043-.034c.015-.01.047-.024.069-.039a7.5 7.5 0 0 0 2.314-2.544c.03-.05.067-.096.097-.144.87-1.433 1.34-3.176 1.34-5.042a10.2 10.2 0 0 0-1.052-4.475"/></g><defs><clipPath id="a"><path fill="#fff" d="M0 0h16v29.474H0z"/></clipPath></defs></svg>